<svg id="visual" viewBox="0 0 900 600" width="900" height="600" xmlns="http://www.w3.org/2000/svg" xmlns:xlink="http://www.w3.org/1999/xlink" version="1.1"><rect x="0" y="0" width="900" height="600" fill="#e4e2ed"></rect><g transform="translate(460.21529146671105 302.21442914473)"><path d="M158.6 -197.1C218 -175.1 287.3 -145.5 303.3 -98.1C319.2 -50.8 281.8 14.3 249.6 71.1C217.4 127.9 190.4 176.4 149.7 210.5C108.9 244.6 54.5 264.3 4.3 258.4C-45.9 252.5 -91.8 221.1 -150.2 192.7C-208.5 164.3 -279.2 139 -309.2 90.2C-339.2 41.4 -328.4 -30.9 -305 -97.9C-281.5 -164.8 -245.4 -226.4 -192.4 -250.5C-139.5 -274.7 -69.8 -261.3 -10.1 -247.4C49.6 -233.6 99.1 -219.1 158.6 -197.1" fill="#5d508d"></path></g></svg>