<svg id="visual" viewBox="0 0 900 600" width="900" height="600" xmlns="http://www.w3.org/2000/svg" xmlns:xlink="http://www.w3.org/1999/xlink" version="1.1"><rect x="0" y="0" width="900" height="600" fill="#5d508d"></rect><defs><linearGradient id="grad1_0" x1="33.3%" y1="0%" x2="100%" y2="100%"><stop offset="20%" stop-color="#5d508d" stop-opacity="1"></stop><stop offset="80%" stop-color="#5d508d" stop-opacity="1"></stop></linearGradient></defs><defs><linearGradient id="grad2_0" x1="0%" y1="0%" x2="66.7%" y2="100%"><stop offset="20%" stop-color="#5d508d" stop-opacity="1"></stop><stop offset="80%" stop-color="#5d508d" stop-opacity="1"></stop></linearGradient></defs><g transform="translate(900, 0)"><path d="M0 405.6C-27.5 388.6 -54.9 371.5 -82.8 362.7C-110.7 353.9 -138.9 353.3 -166.2 345.1C-193.4 336.8 -219.6 320.8 -240 301C-260.5 281.2 -275.2 257.6 -297.9 237.5C-320.5 217.5 -351 200.9 -365.5 176C-379.9 151.1 -378.2 117.9 -382.2 87.2C-386.2 56.5 -395.9 28.3 -405.6 0L0 0Z" fill="#FCAF3C"></path></g><g transform="translate(0, 600)"><path d="M0 -405.6C27.8 -394.7 55.7 -383.8 86.8 -380.2C117.9 -376.7 152.2 -380.5 176 -365.5C199.7 -350.4 212.9 -316.5 236.3 -296.3C259.7 -276.2 293.4 -269.8 312.7 -249.4C332.1 -229 337.2 -194.5 341.5 -164.4C345.7 -134.4 349.2 -108.8 359.7 -82.1C370.3 -55.4 388 -27.7 405.6 0L0 0Z" fill="#FCAF3C"></path></g></svg>